<?xml version="1.0" encoding="utf-8"?>
<!-- Generator: Adobe Illustrator 17.0.0, SVG Export Plug-In . SVG Version: 6.00 Build 0)  -->
<!DOCTYPE svg PUBLIC "-//W3C//DTD SVG 1.1//EN" "http://www.w3.org/Graphics/SVG/1.1/DTD/svg11.dtd">
<svg version="1.1" id="Layer_1" xmlns="http://www.w3.org/2000/svg" xmlns:xlink="http://www.w3.org/1999/xlink" x="0px" y="0px"
	 width="29.903px" height="50px" viewBox="0 0 29.903 50" enable-background="new 0 0 29.903 50" xml:space="preserve">
<g>
	<g>
		<g>
			<g>
				<path fill="#0692A8" d="M20.325,16.743c-4.464,2.579-9.056,2.921-13.798,0.716c5.087,1.458,9.91,1.44,14.204-2.139
					c0.969,2.199,1.9,4.313,2.797,6.348c1.888-0.589,3.773-1.176,5.658-1.764c0.003,0.017,0.006,0.033,0.008,0.05
					c-1.621,0.792-3.239,1.59-4.867,2.37c-0.395,0.189-0.493,0.382-0.348,0.79c0.951,2.683,1.628,5.421,1.928,8.226
					c0.524,4.883-0.587,9.395-3.974,13.338c-1.807,2.104-4.166,3.503-7.153,3.918c-2.496,0.347-4.852,0.109-6.738-1.594
					c-1.172-1.058-1.715-2.394-1.943-3.841c-0.428-2.712,0.544-5.148,1.934-7.48c1.907-3.199,4.51-5.915,7.572-8.267
					c2.199-1.689,4.501-3.272,6.763-4.896c0.204-0.147,0.391-0.252,0.266-0.537c-0.734-1.686-1.453-3.377-2.18-5.065
					C20.431,16.862,20.381,16.816,20.325,16.743z M23.089,23.058c-0.376,0.225-0.613,0.358-0.84,0.504
					c-3.031,1.949-5.849,4.124-8.457,6.505c-2.281,2.082-4.194,4.416-5.558,7.077c-0.967,1.886-1.559,3.832-1.246,5.953
					c0.444,3.006,2.703,4.85,6.098,4.836c3.116-0.013,5.658-1.175,7.667-3.248c2.918-3.011,4.189-6.6,4.374-10.514
					c0.105-2.23-0.257-4.439-0.785-6.616C23.984,26.086,23.532,24.636,23.089,23.058z"/>
				<path fill="#0692A8" d="M12.942,49.108c-2.104,0-3.789-0.597-5.15-1.827c-1.115-1.007-1.79-2.335-2.062-4.061
					c-0.487-3.087,0.803-5.753,1.982-7.73c1.837-3.082,4.344-5.821,7.665-8.372c1.587-1.219,3.251-2.4,4.861-3.541
					c0.638-0.453,1.277-0.906,1.912-1.362l0.043-0.031c0.029-0.021,0.065-0.046,0.092-0.068c-0.483-1.109-0.967-2.238-1.435-3.33
					c-0.22-0.512-0.439-1.025-0.66-1.537c-2.45,1.355-4.945,2.042-7.42,2.042c-2.116,0-4.27-0.502-6.4-1.493l0.261-0.7
					c2.099,0.602,3.957,0.894,5.679,0.894c3.115,0,5.791-0.969,8.182-2.961l0.382-0.318l2.862,6.497l5.747-1.792l0.127,0.749
					l-0.252,0.123c-0.439,0.214-0.877,0.429-1.316,0.644c-1.163,0.569-2.365,1.158-3.554,1.727c-0.172,0.082-0.197,0.129-0.197,0.13
					c0,0-0.013,0.045,0.04,0.197c1.019,2.873,1.656,5.592,1.948,8.311c0.563,5.245-0.804,9.829-4.062,13.623
					c-1.954,2.275-4.439,3.636-7.386,4.045C14.152,49.062,13.534,49.108,12.942,49.108z M17.409,26.53
					c-0.531,0.39-1.058,0.785-1.576,1.183c-3.244,2.492-5.69,5.162-7.478,8.162c-1.114,1.869-2.335,4.38-1.885,7.23
					c0.244,1.55,0.841,2.735,1.824,3.622c1.218,1.099,2.738,1.634,4.648,1.634c0.557,0,1.142-0.044,1.787-0.133
					c2.761-0.383,5.089-1.659,6.921-3.791c3.162-3.682,4.433-7.952,3.886-13.055c-0.286-2.661-0.91-5.324-1.909-8.141
					c-0.206-0.58-0.034-0.978,0.539-1.253c0.245-0.117,0.491-0.236,0.737-0.354l-1.582,0.493l-2.734-6.207
					c-0.618,0.482-1.254,0.902-1.911,1.26c0.489-0.225,0.976-0.479,1.462-0.76l0.286-0.165l0.2,0.264
					c0.015,0.019,0.029,0.036,0.042,0.052c0.043,0.051,0.095,0.114,0.133,0.201c0.247,0.573,0.493,1.148,0.739,1.722
					c0.47,1.096,0.956,2.229,1.44,3.341c0.237,0.545-0.161,0.827-0.352,0.963l-0.039,0.028c-0.376,0.27-0.754,0.54-1.132,0.808
					c0.196-0.129,0.394-0.258,0.592-0.385c0.153-0.099,0.307-0.189,0.502-0.304c0.103-0.061,0.217-0.128,0.349-0.206l0.42-0.251
					l0.132,0.472c0.139,0.495,0.279,0.977,0.416,1.452c0.305,1.05,0.592,2.043,0.839,3.057c0.636,2.62,0.888,4.756,0.795,6.722
					c-0.205,4.34-1.67,7.859-4.479,10.757c-2.15,2.218-4.82,3.349-7.935,3.362l-0.04,0c-3.549,0-5.952-1.928-6.43-5.156
					c-0.288-1.947,0.12-3.91,1.283-6.179c1.302-2.539,3.199-4.956,5.639-7.183C14.782,28.655,16.075,27.566,17.409,26.53z
					 M22.861,23.628c-0.157,0.092-0.286,0.169-0.41,0.249c-2.97,1.91-5.799,4.086-8.408,6.467c-2.407,2.197-4.199,4.477-5.478,6.971
					c-1.088,2.123-1.472,3.943-1.209,5.727c0.418,2.828,2.544,4.516,5.689,4.516l0.037,0c2.906-0.012,5.395-1.067,7.4-3.134
					c2.676-2.761,4.073-6.121,4.269-10.271c0.089-1.893-0.157-3.962-0.775-6.51c-0.242-0.999-0.528-1.983-0.83-3.025
					C23.052,24.292,22.956,23.962,22.861,23.628z"/>
			</g>
			<g>
				<path fill="#0692A8" d="M11.638,14.84c-2.616-0.08-4.76-0.845-6.432-2.517c-0.289-0.289-0.535-0.326-0.917-0.219
					c-0.881,0.248-1.777,0.455-2.662,0.692c-0.402,0.108-0.712,0.071-0.835-0.336c-0.124-0.41,0.193-0.525,0.541-0.613
					c0.872-0.221,1.746-0.435,2.61-0.678c0.136-0.038,0.339-0.235,0.318-0.322c-0.24-0.985-0.127-1.923,0.45-2.849
					C3.846,7.454,3.004,6.924,2.164,6.394c-0.6-0.379-0.75-0.654-0.478-0.935c0.417-0.43,0.764-0.095,1.106,0.118
					c0.847,0.527,1.689,1.06,2.454,1.541C6.385,6.433,7.47,5.781,8.627,5.086C8.292,4.56,7.908,3.959,7.524,3.357
					C7.401,3.163,7.279,2.97,7.157,2.776C6.979,2.493,6.848,2.203,7.268,2.004C7.676,1.81,7.942,2.007,8.14,2.314
					c0.338,0.523,0.673,1.048,1.008,1.573C9.757,4.84,9.753,4.821,10.99,4.63c0.593-0.092,1.203-0.135,1.806-0.132
					c0.429,0.002,0.593-0.15,0.683-0.494c0.181-0.695,0.409-1.38,0.592-2.074c0.104-0.394,0.285-0.749,0.795-0.645
					c0.541,0.11,0.398,0.517,0.299,0.863c-0.193,0.676-0.387,1.352-0.578,2.029c-0.029,0.103-0.043,0.21-0.066,0.327
					c0.585,0.094,1.148,0.152,1.692,0.277c1.694,0.39,3.179,1.116,4.347,2.299c1.572,1.591,1.62,3.616,0.188,5.021
					c-0.171,0.168-0.416,0.421-0.511,0.443c-0.097,0.023,0.046-0.132,0.113-0.207c0.022-0.025,0.043-0.049,0.064-0.074
					c1.393-1.631,1.156-3.688-0.604-5.034c-1.24-0.949-2.726-1.414-4.301-1.685c-2.153-0.371-4.302-0.379-6.361,0.352
					c-0.895,0.318-1.781,0.76-2.516,1.31c-1.948,1.458-2.025,3.678-0.274,5.339c1.272,1.207,2.929,1.766,4.674,2.165
					C11.187,14.743,11.342,14.776,11.638,14.84z"/>
				<path fill="#0692A8" d="M11.626,15.215c-2.818-0.086-5.005-0.946-6.685-2.627c-0.152-0.152-0.237-0.164-0.311-0.164
					c-0.062,0-0.141,0.014-0.24,0.041c-0.513,0.144-1.038,0.277-1.545,0.405c-0.369,0.093-0.75,0.189-1.122,0.289
					c-0.162,0.043-0.304,0.065-0.433,0.065c-0.426,0-0.73-0.232-0.858-0.654c-0.071-0.235-0.055-0.446,0.047-0.626
					c0.162-0.286,0.478-0.387,0.761-0.459l0.537-0.135c0.677-0.17,1.376-0.346,2.056-0.537c0.008-0.004,0.019-0.012,0.031-0.021
					C3.663,9.839,3.776,8.963,4.209,8.125L3.702,7.806C3.117,7.437,2.54,7.074,1.964,6.71C1.605,6.484,1.232,6.2,1.185,5.809
					c-0.018-0.151,0.007-0.38,0.232-0.611c0.207-0.214,0.439-0.322,0.688-0.322c0.308,0,0.56,0.168,0.763,0.303
					C2.909,5.206,2.95,5.233,2.99,5.258C3.592,5.632,4.192,6.01,4.764,6.371l0.487,0.307l2.853-1.714L7.208,3.558
					C7.085,3.364,6.962,3.169,6.84,2.975C6.743,2.821,6.542,2.501,6.641,2.16c0.061-0.21,0.218-0.377,0.467-0.495
					C7.265,1.59,7.422,1.552,7.574,1.552c0.345,0,0.642,0.188,0.881,0.559C8.764,2.59,9.07,3.069,9.377,3.549l0.087,0.137
					c0.43,0.674,0.461,0.674,0.66,0.674c0.162,0,0.405-0.038,0.742-0.09l0.065-0.01c0.585-0.091,1.192-0.137,1.805-0.137l0.06,0
					c0,0,0,0,0,0c0.263,0,0.274-0.041,0.319-0.214c0.094-0.362,0.202-0.724,0.306-1.074c0.098-0.328,0.198-0.668,0.287-1.001
					c0.165-0.625,0.497-0.942,0.987-0.942c0.078,0,0.161,0.009,0.245,0.026c0.274,0.056,0.472,0.181,0.587,0.372
					c0.186,0.308,0.084,0.661,0.009,0.918l-0.136,0.477c-0.144,0.503-0.288,1.005-0.43,1.508c0.051,0.007,0.101,0.015,0.152,0.022
					c0.387,0.055,0.787,0.112,1.174,0.202c1.853,0.427,3.377,1.235,4.529,2.4c0.866,0.876,1.338,1.932,1.33,2.974
					c-0.007,0.958-0.404,1.849-1.146,2.578l-0.067,0.067c-0.302,0.299-0.451,0.434-0.619,0.474
					c-0.195,0.047-0.385-0.047-0.461-0.216c-0.111-0.249,0.067-0.448,0.197-0.594l0.01-0.011c0.02-0.022,0.04-0.045,0.059-0.068
					c0.606-0.709,0.881-1.506,0.797-2.304c-0.088-0.827-0.552-1.585-1.344-2.19c-1.037-0.793-2.351-1.306-4.137-1.614
					C14.5,5.749,13.637,5.67,12.807,5.67c-1.282,0-2.438,0.189-3.533,0.578C8.356,6.574,7.52,7.008,6.857,7.505
					C6.009,8.14,5.534,8.928,5.484,9.786c-0.05,0.863,0.351,1.746,1.132,2.486c1.275,1.21,2.99,1.726,4.5,2.071
					c0.097,0.022,0.195,0.043,0.329,0.072l0.273,0.059L11.626,15.215z M1.14,12.309c0.001,0.01,0.004,0.024,0.01,0.044
					c0.036,0.121,0.067,0.122,0.14,0.121c0.062,0,0.142-0.013,0.239-0.039c0.377-0.101,0.761-0.198,1.133-0.292
					c0.502-0.127,1.021-0.258,1.525-0.399c0.168-0.047,0.309-0.069,0.443-0.069c0.28,0,0.525,0.099,0.762,0.309
					c-0.472-0.702-0.701-1.473-0.656-2.242c0.062-1.069,0.656-2.077,1.672-2.837c0.723-0.541,1.627-1.013,2.615-1.363
					c1.177-0.418,2.415-0.621,3.784-0.621c0.874,0,1.779,0.083,2.766,0.253c1.162,0.2,2.142,0.486,2.987,0.874
					c-0.721-0.393-1.533-0.695-2.431-0.902c-0.356-0.082-0.723-0.135-1.112-0.19c-0.183-0.026-0.368-0.053-0.555-0.083l-0.383-0.062
					l0.075-0.381c0.007-0.035,0.013-0.069,0.019-0.103c0.014-0.081,0.029-0.166,0.054-0.254c0.15-0.532,0.302-1.064,0.454-1.596
					L14.818,2c0.026-0.09,0.073-0.252,0.067-0.318c-0.014-0.007-0.042-0.019-0.094-0.03c-0.035-0.007-0.067-0.011-0.095-0.011
					c-0.064,0-0.161,0-0.263,0.384c-0.091,0.344-0.194,0.69-0.293,1.023c-0.102,0.344-0.208,0.7-0.299,1.05
					c-0.138,0.528-0.467,0.774-1.037,0.774l-0.067,0c-0.574,0-1.143,0.043-1.69,0.128l-0.065,0.01
					c-0.37,0.057-0.638,0.099-0.857,0.099c-0.64,0-0.872-0.362-1.292-1.02L8.745,3.952C8.44,3.474,8.134,2.995,7.826,2.517
					C7.733,2.374,7.648,2.301,7.574,2.301c-0.039,0-0.089,0.014-0.145,0.041C7.4,2.356,7.381,2.367,7.368,2.376
					c0.01,0.031,0.037,0.09,0.106,0.2C7.596,2.77,7.718,2.963,7.84,3.156L9.15,5.209L5.242,7.557L4.364,7.004
					c-0.57-0.359-1.169-0.737-1.77-1.11C2.547,5.865,2.5,5.833,2.453,5.802C2.328,5.719,2.187,5.624,2.105,5.624
					c-0.048,0-0.108,0.052-0.15,0.095C1.949,5.725,1.945,5.73,1.941,5.735C1.971,5.78,2.069,5.891,2.364,6.077
					C2.94,6.44,3.517,6.804,4.101,7.172l1.126,0.709L5.029,8.197C4.532,8.995,4.4,9.834,4.625,10.76
					c0.09,0.368-0.336,0.702-0.581,0.771c-0.692,0.194-1.4,0.373-2.084,0.545l-0.535,0.135C1.244,12.257,1.17,12.29,1.14,12.309z"/>
			</g>
		</g>
	</g>
</g>
</svg>
